<svg width="20" height="20" viewBox="0 0 20 20" fill="none" xmlns="http://www.w3.org/2000/svg">
<g id="Icon" clip-path="url(#clip0_1257_26068)">
<path id="Vector" d="M2.38697 4.02072C2.69914 4.02072 2.94528 4.08075 3.12537 4.20082C3.36551 4.36891 3.54561 4.537 3.66567 4.70509C3.82176 4.93322 3.8998 5.20337 3.8998 5.51554C3.8998 5.71965 3.86378 5.90575 3.79174 6.07384C3.74371 6.1819 3.65967 6.31998 3.5396 6.48807V6.50608C3.43154 6.66217 3.27846 6.78524 3.08035 6.87529C2.88224 6.96533 2.65712 7.01036 2.40498 7.01036C1.86468 7.01036 1.43845 6.77623 1.12628 6.30797C0.982196 6.09185 0.910156 5.82771 0.910156 5.51554C0.910156 5.20337 0.994202 4.92121 1.16229 4.66907L1.30637 4.50698C1.40243 4.37491 1.55251 4.26085 1.75662 4.16479C1.96073 4.06874 2.17085 4.02072 2.38697 4.02072ZM2.441 9.27961C2.59708 9.27961 2.72015 9.29161 2.8102 9.31563C2.90025 9.33964 3.00531 9.38767 3.12537 9.45971C3.36551 9.60379 3.54561 9.76587 3.66567 9.94597C3.80975 10.1741 3.88179 10.4503 3.88179 10.7744C3.88179 11.0986 3.80975 11.3748 3.66567 11.6029C3.54561 11.783 3.36551 11.9451 3.12537 12.0892C3.00531 12.1612 2.90325 12.2062 2.81921 12.2242C2.73516 12.2422 2.59708 12.2512 2.40498 12.2512C2.12883 12.2512 1.9067 12.2092 1.73861 12.1252C1.61855 12.0651 1.47447 11.9511 1.30637 11.783C1.1743 11.6509 1.07825 11.5098 1.01822 11.3598C0.958183 11.2097 0.928166 11.0146 0.928166 10.7744C0.928166 10.5943 0.937171 10.4683 0.955181 10.3962C0.973191 10.3242 1.01221 10.2281 1.07225 10.1081L1.1803 9.89194C1.24034 9.79589 1.33339 9.69984 1.45946 9.60379C1.58553 9.50773 1.69659 9.4417 1.79264 9.40568L2.00876 9.33364C2.0808 9.30962 2.12883 9.29762 2.15284 9.29762H2.18886C2.28491 9.28561 2.36896 9.27961 2.441 9.27961ZM2.47702 14.5385C2.00876 14.5385 1.66657 14.6466 1.45045 14.8627C1.28236 15.0308 1.15629 15.1929 1.07225 15.3489C0.964186 15.5531 0.910156 15.7812 0.910156 16.0333C0.910156 16.6457 1.19231 17.0959 1.75662 17.3841C1.92471 17.4681 2.14083 17.5101 2.40498 17.5101C2.66912 17.5101 2.89125 17.4681 3.07134 17.3841C3.19141 17.324 3.33549 17.21 3.50358 17.0419C3.56362 16.9818 3.62365 16.8978 3.68368 16.7897L3.77373 16.6276C3.85778 16.5076 3.8998 16.3095 3.8998 16.0333C3.8998 15.8292 3.86378 15.6431 3.79174 15.475C3.74371 15.367 3.65967 15.2289 3.5396 15.0608V15.0428C3.44355 14.8987 3.29647 14.7786 3.09836 14.6826C2.90025 14.5865 2.69314 14.5385 2.47702 14.5385Z" fill="white" fill-opacity="0.7"/>
</g>
<defs>
<clipPath id="clip0_1257_26068">
<rect width="18.19" height="20" fill="white" transform="matrix(1 0 0 -1 0.910156 20)"/>
</clipPath>
</defs>
</svg>
