<svg width="32" height="32" viewBox="0 0 32 32" fill="none" xmlns="http://www.w3.org/2000/svg">
<g id="Extra Icons">
<path id="Vector" d="M16 29.3334C16.8257 29.3345 17.6313 29.0782 18.3047 28.6003C18.978 28.1224 19.4858 27.4466 19.7573 26.6667H12.2427C12.5142 27.4466 13.022 28.1224 13.6953 28.6003C14.3687 29.0782 15.1743 29.3345 16 29.3334ZM25.3333 19.4481V13.3334C25.3333 9.04408 22.42 5.43075 18.4733 4.34408C18.0827 3.36008 17.128 2.66675 16 2.66675C14.872 2.66675 13.9173 3.36008 13.5267 4.34408C9.58 5.43208 6.66667 9.04408 6.66667 13.3334V19.4481L4.39067 21.7241C4.26661 21.8477 4.16823 21.9946 4.10118 22.1564C4.03413 22.3182 3.99975 22.4916 4 22.6667V24.0001C4 24.3537 4.14048 24.6928 4.39053 24.9429C4.64057 25.1929 4.97971 25.3334 5.33333 25.3334H26.6667C27.0203 25.3334 27.3594 25.1929 27.6095 24.9429C27.8595 24.6928 28 24.3537 28 24.0001V22.6667C28.0003 22.4916 27.9659 22.3182 27.8988 22.1564C27.8318 21.9946 27.7334 21.8477 27.6093 21.7241L25.3333 19.4481Z" fill="#959799"/>
</g>
</svg>
