<svg width="32" height="32" viewBox="0 0 32 32" fill="none" xmlns="http://www.w3.org/2000/svg">
<g id="Icons-2">
<path id="Vector" d="M28.5504 23.6874C29.3236 22.2787 29.7366 20.7008 29.7527 19.094C29.7688 17.4872 29.3876 15.9013 28.6429 14.4774C27.8981 13.0535 26.813 11.8358 25.484 10.9325C24.1551 10.0292 22.6235 9.46837 21.0254 9.2999C20.5182 8.0781 19.7677 6.97229 18.8195 6.0498C17.8713 5.1273 16.7453 4.40741 15.5101 3.93394C14.2748 3.46047 12.9561 3.24333 11.6343 3.29574C10.3124 3.34815 9.01503 3.66901 7.82113 4.23879C6.62723 4.80856 5.56176 5.61534 4.68959 6.61001C3.81742 7.60468 3.15679 8.76644 2.74791 10.0246C2.33903 11.2827 2.19045 12.6108 2.31123 13.9282C2.432 15.2456 2.8196 16.5246 3.45042 17.6874L2.65042 20.4999C2.57831 20.7564 2.57581 21.0274 2.64319 21.2852C2.71057 21.543 2.84538 21.7782 3.03377 21.9665C3.22217 22.1549 3.45734 22.2898 3.71511 22.3571C3.97288 22.4245 4.24394 22.422 4.50042 22.3499L7.31292 21.5499C8.44455 22.1743 9.68996 22.5654 10.9754 22.6999C11.4961 23.9705 12.2794 25.1167 13.2738 26.0636C14.2682 27.0104 15.4515 27.7366 16.746 28.1944C18.0405 28.6523 19.4172 28.8316 20.7858 28.7205C22.1544 28.6094 23.4842 28.2105 24.6879 27.5499L27.5004 28.3499C27.7573 28.4264 28.0301 28.432 28.29 28.3662C28.5498 28.3003 28.787 28.1656 28.9765 27.976C29.1661 27.7865 29.3009 27.5493 29.3667 27.2894C29.4325 27.0296 29.4269 26.7568 29.3504 26.4999L28.5504 23.6874ZM7.41292 19.9874C7.34038 19.9867 7.26833 19.9994 7.20042 20.0249L4.08792 20.9124L4.97542 17.7999C5.00662 17.7024 5.01608 17.5993 5.00312 17.4978C4.99016 17.3963 4.9551 17.2989 4.90042 17.2124C3.87755 15.4862 3.5199 13.446 3.89462 11.4747C4.26935 9.50353 5.35067 7.73686 6.9356 6.50637C8.52054 5.27589 10.5001 4.6662 12.5027 4.79176C14.5053 4.91733 16.3932 5.7695 17.812 7.18833C19.2308 8.60715 20.083 10.495 20.2086 12.4976C20.3341 14.5002 19.7244 16.4798 18.4939 18.0647C17.2635 19.6497 15.4968 20.731 13.5256 21.1057C11.5544 21.4804 9.51414 21.1228 7.78792 20.0999C7.67647 20.0268 7.54618 19.9878 7.41292 19.9874ZM27.0254 23.7999L27.9129 26.9124L24.8004 26.0249C24.703 25.9937 24.5999 25.9842 24.4984 25.9972C24.3968 26.0102 24.2994 26.0452 24.2129 26.0999C23.2402 26.6751 22.1598 27.0447 21.0386 27.1858C19.9174 27.3269 18.7791 27.2365 17.6942 26.9202C16.6093 26.6038 15.6008 26.0683 14.7312 25.3467C13.8615 24.6251 13.149 23.7328 12.6379 22.7249C15.1064 22.5602 17.4202 21.4645 19.1118 19.6592C20.8033 17.854 21.7464 15.4738 21.7504 12.9999C21.7476 12.2892 21.668 11.581 21.5129 10.8874C22.8178 11.1325 24.0444 11.6884 25.0888 12.5081C26.1333 13.3278 26.9648 14.3871 27.513 15.5963C28.0612 16.8056 28.3099 18.1291 28.2381 19.4548C28.1663 20.7806 27.776 22.0695 27.1004 23.2124C27.0457 23.2989 27.0107 23.3963 26.9977 23.4978C26.9848 23.5993 26.9942 23.7024 27.0254 23.7999Z" fill="#959799"/>
</g>
</svg>
