<svg width="56" height="56" viewBox="0 0 56 56" fill="none" xmlns="http://www.w3.org/2000/svg">
<rect width="56" height="56" rx="13.6216" fill="white"/>
<path d="M29.6287 40.1081C28.7929 40.1081 28.1152 39.4305 28.1152 38.5946V17.4054C28.1152 16.5695 28.7929 15.8919 29.6287 15.8919H37.6693C39.506 15.8919 41.0708 16.2427 42.3635 16.9443C43.6563 17.638 44.6417 18.6036 45.3196 19.8412C46.0054 21.071 46.3483 22.4899 46.3483 24.098C46.3483 25.7061 46.0015 27.125 45.3078 28.3547C44.6141 29.5845 43.609 30.5422 42.2926 31.2281C40.984 31.9139 39.3996 32.2568 37.5392 32.2568H32.9632C32.1273 32.2568 31.4497 31.5791 31.4497 30.7433V29.6672C31.4497 28.8314 32.1273 28.1537 32.9632 28.1537H36.7115C37.6969 28.1537 38.5088 27.9842 39.1473 27.6453C39.7937 27.2984 40.2746 26.8215 40.5899 26.2145C40.9131 25.5997 41.0747 24.8942 41.0747 24.098C41.0747 23.2939 40.9131 22.5924 40.5899 21.9933C40.2746 21.3863 39.7937 20.9172 39.1473 20.5862C38.5009 20.2472 37.6811 20.0777 36.6879 20.0777H34.7487C33.9128 20.0777 33.2352 20.7553 33.2352 21.5912V38.5946C33.2352 39.4305 32.5575 40.1081 31.7217 40.1081H29.6287Z" fill="black"/>
<mask id="path-3-outside-1_359_824" maskUnits="userSpaceOnUse" x="8.08203" y="14.1351" width="25" height="26" fill="black">
<rect fill="white" x="8.08203" y="14.1351" width="25" height="26"/>
<path d="M30.7722 29.8107C31.9395 30.1235 32.6495 31.336 32.132 32.428C31.2001 34.3946 29.7489 36.0867 27.917 37.3107C25.4746 38.9427 22.5221 39.6312 19.6097 39.2477C16.6973 38.8643 14.0236 37.4352 12.0868 35.2266C10.1499 33.0181 9.08203 30.1807 9.08203 27.2432C9.08203 24.3057 10.1499 21.4683 12.0868 19.2598C14.0236 17.0512 16.6973 15.6221 19.6097 15.2387C22.5221 14.8553 25.4746 15.5437 27.917 17.1757C29.7489 18.3997 31.2001 20.0918 32.132 22.0584C32.6495 23.1504 31.9395 24.3629 30.7722 24.6757V24.6757C29.605 24.9884 28.4292 24.2696 27.803 23.2362C27.2215 22.2765 26.4334 21.4473 25.4859 20.8142C23.9261 19.772 22.0407 19.3324 20.1809 19.5772C18.3211 19.8221 16.6137 20.7347 15.3768 22.1451C14.14 23.5554 13.458 25.3673 13.458 27.2432C13.458 29.1191 14.14 30.931 15.3768 32.3414C16.6137 33.7517 18.3211 34.6643 20.1809 34.9092C22.0407 35.154 23.9261 34.7144 25.4859 33.6722C26.4334 33.0391 27.2215 32.2099 27.803 31.2502C28.4292 30.2168 29.605 29.498 30.7722 29.8107V29.8107Z"/>
</mask>
<path d="M30.7722 29.8107C31.9395 30.1235 32.6495 31.336 32.132 32.428C31.2001 34.3946 29.7489 36.0867 27.917 37.3107C25.4746 38.9427 22.5221 39.6312 19.6097 39.2477C16.6973 38.8643 14.0236 37.4352 12.0868 35.2266C10.1499 33.0181 9.08203 30.1807 9.08203 27.2432C9.08203 24.3057 10.1499 21.4683 12.0868 19.2598C14.0236 17.0512 16.6973 15.6221 19.6097 15.2387C22.5221 14.8553 25.4746 15.5437 27.917 17.1757C29.7489 18.3997 31.2001 20.0918 32.132 22.0584C32.6495 23.1504 31.9395 24.3629 30.7722 24.6757V24.6757C29.605 24.9884 28.4292 24.2696 27.803 23.2362C27.2215 22.2765 26.4334 21.4473 25.4859 20.8142C23.9261 19.772 22.0407 19.3324 20.1809 19.5772C18.3211 19.8221 16.6137 20.7347 15.3768 22.1451C14.14 23.5554 13.458 25.3673 13.458 27.2432C13.458 29.1191 14.14 30.931 15.3768 32.3414C16.6137 33.7517 18.3211 34.6643 20.1809 34.9092C22.0407 35.154 23.9261 34.7144 25.4859 33.6722C26.4334 33.0391 27.2215 32.2099 27.803 31.2502C28.4292 30.2168 29.605 29.498 30.7722 29.8107V29.8107Z" fill="black"/>
<path d="M30.7722 29.8107C31.9395 30.1235 32.6495 31.336 32.132 32.428C31.2001 34.3946 29.7489 36.0867 27.917 37.3107C25.4746 38.9427 22.5221 39.6312 19.6097 39.2477C16.6973 38.8643 14.0236 37.4352 12.0868 35.2266C10.1499 33.0181 9.08203 30.1807 9.08203 27.2432C9.08203 24.3057 10.1499 21.4683 12.0868 19.2598C14.0236 17.0512 16.6973 15.6221 19.6097 15.2387C22.5221 14.8553 25.4746 15.5437 27.917 17.1757C29.7489 18.3997 31.2001 20.0918 32.132 22.0584C32.6495 23.1504 31.9395 24.3629 30.7722 24.6757V24.6757C29.605 24.9884 28.4292 24.2696 27.803 23.2362C27.2215 22.2765 26.4334 21.4473 25.4859 20.8142C23.9261 19.772 22.0407 19.3324 20.1809 19.5772C18.3211 19.8221 16.6137 20.7347 15.3768 22.1451C14.14 23.5554 13.458 25.3673 13.458 27.2432C13.458 29.1191 14.14 30.931 15.3768 32.3414C16.6137 33.7517 18.3211 34.6643 20.1809 34.9092C22.0407 35.154 23.9261 34.7144 25.4859 33.6722C26.4334 33.0391 27.2215 32.2099 27.803 31.2502C28.4292 30.2168 29.605 29.498 30.7722 29.8107V29.8107Z" stroke="white" stroke-width="1.51351" mask="url(#path-3-outside-1_359_824)"/>
</svg>
