<svg width="56" height="56" viewBox="0 0 56 56" fill="none" xmlns="http://www.w3.org/2000/svg">
<g id="Frame 28">
<rect width="56" height="56" rx="13.6216" fill="white"/>
<g id="Group 1">
<path id="Subtract" d="M29.6278 40.1081C28.7919 40.1081 28.1143 39.4304 28.1143 38.5945V17.4054C28.1143 16.5695 28.7919 15.8918 29.6278 15.8918H37.6683C39.505 15.8918 41.0698 16.2426 42.3626 16.9442C43.6554 17.6379 44.6407 18.6036 45.3187 19.8412C46.0045 21.0709 46.3474 22.4898 46.3474 24.0979C46.3474 25.706 46.0005 27.125 45.3068 28.3547C44.6131 29.5844 43.6081 30.5422 42.2916 31.228C40.9831 31.9138 39.3986 32.2567 37.5382 32.2567H32.9622C32.1263 32.2567 31.4487 31.5791 31.4487 30.7432V29.6672C31.4487 28.8313 32.1263 28.1537 32.9622 28.1537H36.7105C37.6959 28.1537 38.5078 27.9842 39.1464 27.6452C39.7928 27.2984 40.2736 26.8215 40.5889 26.2145C40.9121 25.5996 41.0737 24.8941 41.0737 24.0979C41.0737 23.2939 40.9121 22.5923 40.5889 21.9932C40.2736 21.3862 39.7928 20.9172 39.1464 20.5861C38.5 20.2471 37.6801 20.0777 36.6869 20.0777H34.7477C33.9118 20.0777 33.2342 20.7553 33.2342 21.5912V38.5945C33.2342 39.4304 32.5566 40.1081 31.7207 40.1081H29.6278Z" fill="black"/>
<g id="Ellipse 2">
<mask id="path-3-outside-1_1439_1371" maskUnits="userSpaceOnUse" x="8.08105" y="14.135" width="25" height="26" fill="black">
<rect fill="white" x="8.08105" y="14.135" width="25" height="26"/>
<path d="M30.7713 29.8106C31.9385 30.1234 32.6485 31.3359 32.1311 32.4279C31.1992 34.3945 29.7479 36.0866 27.9161 37.3106C25.4736 38.9426 22.5211 39.6311 19.6087 39.2476C16.6963 38.8642 14.0227 37.4351 12.0858 35.2265C10.149 33.018 9.08106 30.1806 9.08105 27.2431C9.08105 24.3056 10.149 21.4682 12.0858 19.2597C14.0226 17.0511 16.6963 15.622 19.6087 15.2386C22.5211 14.8552 25.4736 15.5436 27.9161 17.1756C29.7479 18.3996 31.1992 20.0917 32.1311 22.0583C32.6485 23.1503 31.9385 24.3628 30.7713 24.6756C29.604 24.9884 28.4282 24.2696 27.802 23.2361C27.2205 22.2764 26.4324 21.4472 25.4849 20.8141C23.9252 19.7719 22.0397 19.3323 20.1799 19.5771C18.3201 19.822 16.6127 20.7346 15.3758 22.145C14.139 23.5553 13.457 25.3672 13.457 27.2431C13.457 29.119 14.139 30.9309 15.3758 32.3413C16.6127 33.7516 18.3201 34.6642 20.1799 34.9091C22.0397 35.154 23.9252 34.7143 25.4849 33.6722C26.4324 33.039 27.2205 32.2098 27.802 31.2501C28.4283 30.2167 29.604 29.4979 30.7713 29.8106Z"/>
</mask>
<path d="M30.7713 29.8106C31.9385 30.1234 32.6485 31.3359 32.1311 32.4279C31.1992 34.3945 29.7479 36.0866 27.9161 37.3106C25.4736 38.9426 22.5211 39.6311 19.6087 39.2476C16.6963 38.8642 14.0227 37.4351 12.0858 35.2265C10.149 33.018 9.08106 30.1806 9.08105 27.2431C9.08105 24.3056 10.149 21.4682 12.0858 19.2597C14.0226 17.0511 16.6963 15.622 19.6087 15.2386C22.5211 14.8552 25.4736 15.5436 27.9161 17.1756C29.7479 18.3996 31.1992 20.0917 32.1311 22.0583C32.6485 23.1503 31.9385 24.3628 30.7713 24.6756C29.604 24.9884 28.4282 24.2696 27.802 23.2361C27.2205 22.2764 26.4324 21.4472 25.4849 20.8141C23.9252 19.7719 22.0397 19.3323 20.1799 19.5771C18.3201 19.822 16.6127 20.7346 15.3758 22.145C14.139 23.5553 13.457 25.3672 13.457 27.2431C13.457 29.119 14.139 30.9309 15.3758 32.3413C16.6127 33.7516 18.3201 34.6642 20.1799 34.9091C22.0397 35.154 23.9252 34.7143 25.4849 33.6722C26.4324 33.039 27.2205 32.2098 27.802 31.2501C28.4283 30.2167 29.604 29.4979 30.7713 29.8106Z" fill="black"/>
<path d="M30.7713 29.8106C31.9385 30.1234 32.6485 31.3359 32.1311 32.4279C31.1992 34.3945 29.7479 36.0866 27.9161 37.3106C25.4736 38.9426 22.5211 39.6311 19.6087 39.2476C16.6963 38.8642 14.0227 37.4351 12.0858 35.2265C10.149 33.018 9.08106 30.1806 9.08105 27.2431C9.08105 24.3056 10.149 21.4682 12.0858 19.2597C14.0226 17.0511 16.6963 15.622 19.6087 15.2386C22.5211 14.8552 25.4736 15.5436 27.9161 17.1756C29.7479 18.3996 31.1992 20.0917 32.1311 22.0583C32.6485 23.1503 31.9385 24.3628 30.7713 24.6756C29.604 24.9884 28.4282 24.2696 27.802 23.2361C27.2205 22.2764 26.4324 21.4472 25.4849 20.8141C23.9252 19.7719 22.0397 19.3323 20.1799 19.5771C18.3201 19.822 16.6127 20.7346 15.3758 22.145C14.139 23.5553 13.457 25.3672 13.457 27.2431C13.457 29.119 14.139 30.9309 15.3758 32.3413C16.6127 33.7516 18.3201 34.6642 20.1799 34.9091C22.0397 35.154 23.9252 34.7143 25.4849 33.6722C26.4324 33.039 27.2205 32.2098 27.802 31.2501C28.4283 30.2167 29.604 29.4979 30.7713 29.8106Z" stroke="white" stroke-width="1.51351" mask="url(#path-3-outside-1_1439_1371)"/>
</g>
</g>
</g>
</svg>
