<svg width="24" height="24" viewBox="0 0 24 24" fill="none" xmlns="http://www.w3.org/2000/svg">
<g id="Icons-2">
<g clip-path="url(#clip0_1439_1454)">
<path id="Vector" d="M13.8332 6.66659C15.3059 6.66659 16.4998 5.47268 16.4998 3.99992C16.4998 2.52716 15.3059 1.33325 13.8332 1.33325C12.3604 1.33325 11.1665 2.52716 11.1665 3.99992C11.1665 5.47268 12.3604 6.66659 13.8332 6.66659Z" fill="#B3B3B3"/>
<path id="Vector_2" d="M16.5598 17.4866C16.4861 17.437 16.4033 17.4027 16.3162 17.3855C16.2291 17.3684 16.1394 17.3689 16.0525 17.3869C15.9655 17.4049 15.883 17.4401 15.8099 17.4904C15.7367 17.5407 15.6744 17.6051 15.6265 17.6799C14.982 18.6343 14.1925 19.4823 13.2865 20.1932C13.0665 20.3599 12.2465 20.9932 11.8998 20.8599C11.6598 20.7866 11.7998 20.3132 11.8465 20.1132L12.1998 19.0666C12.3465 18.6399 14.8998 11.0666 15.1798 10.1999C15.5931 8.93322 15.4131 7.68655 13.5265 7.98655C13.0131 8.03989 7.80645 8.71322 7.71312 8.71989C7.62557 8.72558 7.54 8.74845 7.4613 8.78722C7.38259 8.82598 7.31229 8.87986 7.25441 8.94579C7.19652 9.01172 7.1522 9.0884 7.12395 9.17146C7.0957 9.25453 7.0841 9.34234 7.08979 9.42989C7.09548 9.51743 7.11836 9.603 7.15712 9.68171C7.19588 9.76042 7.24976 9.83072 7.31569 9.8886C7.38162 9.94648 7.4583 9.99081 7.54136 10.0191C7.62443 10.0473 7.71224 10.0589 7.79979 10.0532C7.79979 10.0532 9.79979 9.79322 10.0198 9.77322C10.1325 9.76222 10.2459 9.78406 10.3465 9.83611C10.447 9.88816 10.5304 9.96819 10.5865 10.0666C10.7072 10.44 10.6907 10.8443 10.5398 11.2066C10.3665 11.8732 7.62645 19.5932 7.53979 20.0399C7.44683 20.4137 7.47264 20.8071 7.61362 21.1656C7.75461 21.524 8.00376 21.8296 8.32645 22.0399C8.93213 22.4436 9.65329 22.6379 10.3798 22.5932C11.0862 22.5846 11.7848 22.4444 12.4398 22.1799C14.0998 21.5132 15.8331 19.7399 16.7465 18.3466C16.8251 18.205 16.8495 18.0396 16.8152 17.8814C16.7808 17.7231 16.69 17.5828 16.5598 17.4866Z" fill="#B3B3B3"/>
</g>
</g>
<defs>
<clipPath id="clip0_1439_1454">
<rect width="24" height="24" rx="12" fill="white"/>
</clipPath>
</defs>
</svg>
