<svg width="24" height="24" viewBox="0 0 24 24" fill="none" xmlns="http://www.w3.org/2000/svg">
<g id="Icons-2">
<path id="Vector" d="M12 1.25C9.14892 1.25 6.41462 2.38259 4.3986 4.3986C2.38259 6.41462 1.25 9.14892 1.25 12C1.25 14.8511 2.38259 17.5854 4.3986 19.6014C6.41462 21.6174 9.14892 22.75 12 22.75C14.8511 22.75 17.5854 21.6174 19.6014 19.6014C21.6174 17.5854 22.75 14.8511 22.75 12C22.75 9.14892 21.6174 6.41462 19.6014 4.3986C17.5854 2.38259 14.8511 1.25 12 1.25ZM12.25 3.25357C13.3138 3.28398 14.3639 3.50824 15.3485 3.91605C16.4101 4.35578 17.3747 5.0003 18.1872 5.81282C18.9997 6.62533 19.6442 7.58992 20.0839 8.65152C20.5237 9.71312 20.75 10.8509 20.75 12C20.75 13.1491 20.5237 14.2869 20.0839 15.3485C19.6442 16.4101 18.9997 17.3747 18.1872 18.1872C17.3747 18.9997 16.4101 19.6442 15.3485 20.0839C14.3639 20.4918 13.3138 20.716 12.25 20.7464V3.25357Z" fill="#B3B3B3" stroke="#B3B3B3" stroke-width="0.5"/>
</g>
</svg>
