<svg width="24" height="24" viewBox="0 0 24 24" fill="none" xmlns="http://www.w3.org/2000/svg">
<g id="Icons-2" clip-path="url(#clip0_1439_1433)">
<path id="Vector" d="M23.641 14.9022C22.0377 21.3342 15.521 25.2441 9.09824 23.6407C2.66605 22.0374 -1.24389 15.521 0.359518 9.09829C1.96283 2.66629 8.47002 -1.24364 14.9022 0.359763C21.325 1.9537 25.2444 8.47007 23.641 14.9022Z" fill="url(#paint0_linear_1439_1433)"/>
<path id="Vector_2" d="M17.7136 10.5047C17.9479 8.91099 16.7386 8.04849 15.0698 7.47661L15.6136 5.31099L14.3011 4.98286L13.7761 7.09224C13.4292 7.00786 13.0729 6.92349 12.7167 6.84849L13.2417 4.72974L11.9292 4.40161L11.3948 6.55786C11.1042 6.49224 10.8229 6.42661 10.5511 6.36099V6.35161L8.73232 5.90161L8.38545 7.30786C8.38545 7.30786 9.36045 7.53286 9.3417 7.54224C9.87607 7.67349 9.96982 8.02974 9.95107 8.31099L9.33232 10.7766C9.36982 10.786 9.4167 10.7954 9.47295 10.8235C9.42607 10.8141 9.3792 10.8047 9.33232 10.786L8.46982 14.236C8.4042 14.3954 8.23545 14.6391 7.86982 14.5454C7.8792 14.5641 6.91357 14.311 6.91357 14.311L6.25732 15.8204L7.97295 16.2516C8.2917 16.336 8.60107 16.411 8.91045 16.4954L8.3667 18.6797L9.6792 19.0079L10.2229 16.8422C10.5792 16.936 10.9354 17.0297 11.2729 17.1141L10.7386 19.2704L12.0511 19.5985L12.5948 17.4141C14.8448 17.836 16.5323 17.6672 17.2354 15.6329C17.8073 14.0016 17.2073 13.0547 16.0261 12.436C16.8979 12.2391 17.5448 11.6672 17.7136 10.5047ZM14.7042 14.7235C14.3011 16.3547 11.5448 15.4735 10.6542 15.2485L11.3761 12.3516C12.2667 12.5766 15.1354 13.0172 14.7042 14.7235ZM15.1167 10.4766C14.7417 11.9672 12.4542 11.2079 11.7136 11.0204L12.3698 8.39536C13.1104 8.58286 15.5011 8.92974 15.1167 10.4766Z" fill="white"/>
</g>
<defs>
<linearGradient id="paint0_linear_1439_1433" x1="11.9935" y1="-0.00551585" x2="11.9935" y2="23.9978" gradientUnits="userSpaceOnUse">
<stop stop-color="#F9AA4B"/>
<stop offset="1" stop-color="#F7931A"/>
</linearGradient>
<clipPath id="clip0_1439_1433">
<rect width="24" height="24" fill="white"/>
</clipPath>
</defs>
</svg>
