<svg width="20" height="20" viewBox="0 0 20 20" fill="none" xmlns="http://www.w3.org/2000/svg">
<g id="Users">
<path id="Vector" d="M6.875 12.5C9.11866 12.5 10.9375 10.6812 10.9375 8.4375C10.9375 6.19384 9.11866 4.375 6.875 4.375C4.63134 4.375 2.8125 6.19384 2.8125 8.4375C2.8125 10.6812 4.63134 12.5 6.875 12.5Z" stroke="#A2A3A4" stroke-width="1.5" stroke-miterlimit="10"/>
<path id="Vector_2" d="M12.1416 4.52628C12.7004 4.36885 13.2864 4.33299 13.8602 4.4211C14.434 4.50922 14.9822 4.71928 15.468 5.03713C15.9538 5.35497 16.3658 5.77323 16.6763 6.26372C16.9868 6.75421 17.1886 7.30555 17.2681 7.8806C17.3476 8.45565 17.303 9.04106 17.1372 9.5974C16.9714 10.1537 16.6883 10.6681 16.307 11.1058C15.9256 11.5435 15.4549 11.8944 14.9266 12.1349C14.3982 12.3754 13.8244 12.4999 13.2439 12.5" stroke="#A2A3A4" stroke-width="1.5" stroke-linecap="round" stroke-linejoin="round"/>
<path id="Vector_3" d="M1.24951 15.4216C1.88399 14.5191 2.7263 13.7825 3.70533 13.274C4.68436 12.7655 5.77137 12.5 6.87458 12.5C7.97779 12.5 9.06481 12.7654 10.0439 13.2738C11.023 13.7822 11.8653 14.5187 12.4999 15.4212" stroke="#A2A3A4" stroke-width="1.5" stroke-linecap="round" stroke-linejoin="round"/>
<path id="Vector_4" d="M13.2437 12.5C14.347 12.4992 15.4342 12.7643 16.4134 13.2728C17.3925 13.7813 18.2347 14.5182 18.8687 15.4212" stroke="#A2A3A4" stroke-width="1.5" stroke-linecap="round" stroke-linejoin="round"/>
</g>
</svg>
