<svg width="20" height="20" viewBox="0 0 20 20" fill="none" xmlns="http://www.w3.org/2000/svg">
<g id="Atom">
<path id="Vector" d="M16.4081 16.4081C17.7505 15.0657 15.9698 11.1084 12.4306 7.56926C8.89152 4.03013 4.93424 2.24935 3.59181 3.59178C2.24939 4.93421 4.03016 8.89149 7.56929 12.4306C11.1084 15.9697 15.0657 17.7505 16.4081 16.4081Z" stroke="white" stroke-width="1.5" stroke-linecap="round" stroke-linejoin="round"/>
<path id="Vector_2" d="M12.4306 12.4307C15.9698 8.89162 17.7505 4.93434 16.4081 3.59191C15.0657 2.24948 11.1084 4.03026 7.56929 7.56938C4.03016 11.1085 2.24939 15.0658 3.59181 16.4082C4.93424 17.7506 8.89152 15.9699 12.4306 12.4307Z" stroke="white" stroke-width="1.5" stroke-linecap="round" stroke-linejoin="round"/>
<path id="Vector_3" d="M10 10.9375C10.5178 10.9375 10.9375 10.5178 10.9375 10C10.9375 9.48223 10.5178 9.0625 10 9.0625C9.48223 9.0625 9.0625 9.48223 9.0625 10C9.0625 10.5178 9.48223 10.9375 10 10.9375Z" fill="white"/>
</g>
</svg>
