<svg width="20" height="20" viewBox="0 0 20 20" fill="none" xmlns="http://www.w3.org/2000/svg">
<g id="Icons">
<path id="Vector" d="M3.57766 8.92254L9.411 3.0892C9.56727 2.93298 9.77919 2.84521 10.0002 2.84521C10.2211 2.84521 10.4331 2.93298 10.5893 3.0892L16.4227 8.92254C16.579 9.07878 16.6668 9.29071 16.6668 9.5117V17.5C16.6668 17.7211 16.579 17.933 16.4228 18.0893C16.2665 18.2456 16.0545 18.3334 15.8335 18.3334H11.6668V12.5H8.3335V18.3334H4.16683C3.94582 18.3334 3.73385 18.2456 3.57757 18.0893C3.42129 17.933 3.3335 17.7211 3.3335 17.5V9.5117C3.33354 9.29071 3.42137 9.07878 3.57766 8.92254Z" fill="#A2A3A4"/>
</g>
</svg>
