<svg width="24" height="24" viewBox="0 0 24 24" fill="none" xmlns="http://www.w3.org/2000/svg">
<g id="Component 2">
<path id="Vector" d="M20.747 10.4601L20.7423 10.4414L18.1126 3.75933C17.9954 3.38198 17.6462 3.12183 17.2501 3.12183H6.5907C6.19227 3.12183 5.83836 3.38667 5.72586 3.7687L3.26727 10.3828L3.26023 10.3992L3.25555 10.4179C3.22508 10.5328 3.2157 10.65 3.23211 10.7648C3.22977 10.8023 3.22742 10.8398 3.22742 10.8773V19.4531C3.22804 19.8308 3.37837 20.1929 3.64548 20.46C3.91258 20.7271 4.27468 20.8775 4.65242 20.8781H19.3524C20.1376 20.8781 20.7774 20.2382 20.7798 19.4531V10.8773C20.7798 10.8468 20.7798 10.8164 20.7774 10.7906C20.7868 10.6757 20.7774 10.5656 20.747 10.4601ZM13.8141 9.45229L13.8071 9.82026C13.7884 10.8726 13.0618 11.5804 12.0001 11.5804C11.4821 11.5804 11.0368 11.414 10.7157 11.0976C10.3946 10.7812 10.2188 10.3406 10.2095 9.82026L10.2024 9.45229H5.37898L7.24227 4.92183H16.5985L18.5134 9.45229H13.8141ZM5.02508 11.2523H8.7118C9.28133 12.5906 10.493 13.3804 12.0024 13.3804C12.7923 13.3804 13.5259 13.1601 14.1188 12.7429C14.6391 12.3773 15.0446 11.8664 15.3071 11.2523H18.9751V19.0781H5.02508V11.2523Z" fill="#A2A3A4"/>
</g>
</svg>
