<svg width="20" height="20" viewBox="0 0 20 20" fill="none" xmlns="http://www.w3.org/2000/svg">
<g id="Handshake">
<path id="Vector" d="M18.8061 9.51435L16.875 10.4799L14.375 5.69223L16.3257 4.71686C16.4723 4.64358 16.6418 4.63079 16.7977 4.68124C16.9536 4.73169 17.0834 4.84134 17.1593 4.98659L19.0806 8.66604C19.119 8.73961 19.1424 8.8201 19.1493 8.90281C19.1563 8.98552 19.1468 9.06879 19.1212 9.14775C19.0956 9.22672 19.0546 9.29981 19.0005 9.36275C18.9464 9.4257 18.8803 9.47723 18.8061 9.51435Z" fill="#A2A3A4" stroke="#A2A3A4" stroke-width="1.5" stroke-linecap="round" stroke-linejoin="round"/>
<path id="Vector_2" d="M3.12519 10.3961L1.19412 9.43061C1.11989 9.39349 1.05378 9.34196 0.999679 9.27902C0.945572 9.21608 0.904545 9.14299 0.878991 9.06402C0.853437 8.98505 0.843869 8.90178 0.850844 8.81907C0.857819 8.73637 0.881198 8.65588 0.919617 8.5823L2.84094 4.90285C2.91678 4.7576 3.04663 4.64795 3.20253 4.5975C3.35843 4.54705 3.52791 4.55984 3.67446 4.63312L5.62519 5.60848L3.12519 10.3961Z" stroke="#A2A3A4" stroke-width="1.5" stroke-linecap="round" stroke-linejoin="round"/>
<path id="Vector_3" d="M16.875 10.48L15.625 11.9423L12.7502 14.8171C12.6739 14.8934 12.5791 14.9487 12.4751 14.9775C12.3711 15.0063 12.2614 15.0077 12.1567 14.9815L7.62881 13.8495C7.54389 13.8283 7.46437 13.7895 7.3954 13.7355L3.125 10.3962" stroke="#A2A3A4" stroke-width="1.5" stroke-linecap="round" stroke-linejoin="round"/>
<path id="Vector_4" d="M15.6252 11.9424L12.1877 9.44238L11.1877 10.1924C10.7549 10.5169 10.2286 10.6924 9.68766 10.6924C9.14673 10.6924 8.6204 10.5169 8.18766 10.1924L7.76416 9.87476C7.69252 9.82104 7.63327 9.75254 7.59041 9.67392C7.54755 9.5953 7.52208 9.50839 7.51573 9.41907C7.50938 9.32975 7.5223 9.24011 7.55362 9.15621C7.58493 9.07232 7.6339 8.99614 7.69722 8.93282L10.7546 5.87544C10.8126 5.8174 10.8815 5.77137 10.9574 5.73996C11.0332 5.70855 11.1145 5.69238 11.1965 5.69238H14.3752" stroke="#A2A3A4" stroke-width="1.5" stroke-linecap="round" stroke-linejoin="round"/>
<path id="Vector_5" d="M5.66992 5.60864L9.6793 4.43977C9.82252 4.39802 9.97596 4.40887 10.1119 4.47037L12.8125 5.69238" stroke="#A2A3A4" stroke-width="1.5" stroke-linecap="round" stroke-linejoin="round"/>
<path id="Vector_6" d="M8.75 16.6298L6.39536 16.0411C6.29981 16.0173 6.21125 15.9711 6.13692 15.9065L4.375 14.375" stroke="#A2A3A4" stroke-width="1.5" stroke-linecap="round" stroke-linejoin="round"/>
</g>
</svg>
