<svg width="158" height="183" viewBox="0 0 158 183" fill="none" xmlns="http://www.w3.org/2000/svg">
<g id="Ellipse 205">
<mask id="path-1-inside-1_1257_14246" fill="white">
<path d="M0.688755 26.4122C11.0118 16.2897 23.5753 8.74274 37.3602 4.38325C51.1452 0.0237671 65.7635 -1.02549 80.0298 1.32057C94.296 3.66663 107.809 9.34195 119.471 17.8863C131.134 26.4306 140.619 37.6034 147.157 50.4986C153.695 63.3938 157.102 77.6483 157.101 92.1062C157.1 106.564 153.692 120.818 147.153 133.713C140.614 146.607 131.127 157.779 119.463 166.322C107.8 174.865 94.2865 180.539 80.02 182.884L74.3561 148.418C83.2063 146.964 91.5892 143.444 98.8249 138.144C106.061 132.845 111.945 125.914 116.002 117.915C120.059 109.916 122.173 101.073 122.173 92.1043C122.174 83.1354 120.061 74.2925 116.005 66.293C111.949 58.2934 106.065 51.3623 98.8299 46.0618C91.5947 40.7613 83.2122 37.2406 74.3621 35.7852C65.512 34.3298 56.4435 34.9807 47.892 37.6852C39.3404 40.3896 31.5467 45.0714 25.1427 51.3508L0.688755 26.4122Z"/>
</mask>
<path d="M0.688755 26.4122C11.0118 16.2897 23.5753 8.74274 37.3602 4.38325C51.1452 0.0237671 65.7635 -1.02549 80.0298 1.32057C94.296 3.66663 107.809 9.34195 119.471 17.8863C131.134 26.4306 140.619 37.6034 147.157 50.4986C153.695 63.3938 157.102 77.6483 157.101 92.1062C157.1 106.564 153.692 120.818 147.153 133.713C140.614 146.607 131.127 157.779 119.463 166.322C107.8 174.865 94.2865 180.539 80.02 182.884L74.3561 148.418C83.2063 146.964 91.5892 143.444 98.8249 138.144C106.061 132.845 111.945 125.914 116.002 117.915C120.059 109.916 122.173 101.073 122.173 92.1043C122.174 83.1354 120.061 74.2925 116.005 66.293C111.949 58.2934 106.065 51.3623 98.8299 46.0618C91.5947 40.7613 83.2122 37.2406 74.3621 35.7852C65.512 34.3298 56.4435 34.9807 47.892 37.6852C39.3404 40.3896 31.5467 45.0714 25.1427 51.3508L0.688755 26.4122Z" fill="#165BAA" stroke="#16BFD6" stroke-width="2" mask="url(#path-1-inside-1_1257_14246)"/>
</g>
</svg>
