<svg width="176" height="173" viewBox="0 0 176 173" fill="none" xmlns="http://www.w3.org/2000/svg">
<g id="Ellipse 206">
<mask id="path-1-inside-1_1257_14247" fill="white">
<path d="M175.258 119.458C169.073 132.526 159.896 143.953 148.469 152.811C137.043 161.669 123.69 167.71 109.493 170.443C95.2955 173.176 80.654 172.524 66.7556 168.541C52.8573 164.558 40.0933 157.355 29.4988 147.517C18.9044 137.679 10.7777 125.483 5.7778 111.917C0.777935 98.3513 -0.954327 83.7981 0.721485 69.4377C2.3973 55.0773 7.43401 41.314 15.4232 29.264C23.4123 17.2139 34.1289 7.21641 46.704 0.082182L63.5429 29.7631C55.6322 34.2511 48.8906 40.5403 43.8648 48.1207C38.839 55.7011 35.6705 64.3593 34.6163 73.3931C33.5621 82.4269 34.6518 91.582 37.7971 100.116C40.9424 108.65 46.0547 116.322 52.7195 122.511C59.3842 128.7 67.4138 133.231 76.1569 135.737C84.9001 138.243 94.1107 138.652 103.042 136.933C111.973 135.214 120.373 131.414 127.561 125.841C134.749 120.269 140.523 113.081 144.414 104.86L175.258 119.458Z"/>
</mask>
<path d="M175.258 119.458C169.073 132.526 159.896 143.953 148.469 152.811C137.043 161.669 123.69 167.71 109.493 170.443C95.2955 173.176 80.654 172.524 66.7556 168.541C52.8573 164.558 40.0933 157.355 29.4988 147.517C18.9044 137.679 10.7777 125.483 5.7778 111.917C0.777935 98.3513 -0.954327 83.7981 0.721485 69.4377C2.3973 55.0773 7.43401 41.314 15.4232 29.264C23.4123 17.2139 34.1289 7.21641 46.704 0.082182L63.5429 29.7631C55.6322 34.2511 48.8906 40.5403 43.8648 48.1207C38.839 55.7011 35.6705 64.3593 34.6163 73.3931C33.5621 82.4269 34.6518 91.582 37.7971 100.116C40.9424 108.65 46.0547 116.322 52.7195 122.511C59.3842 128.7 67.4138 133.231 76.1569 135.737C84.9001 138.243 94.1107 138.652 103.042 136.933C111.973 135.214 120.373 131.414 127.561 125.841C134.749 120.269 140.523 113.081 144.414 104.86L175.258 119.458Z" fill="#63ABFD" stroke="#165BAA" stroke-width="2" mask="url(#path-1-inside-1_1257_14247)"/>
</g>
</svg>
