<svg width="18" height="18" viewBox="0 0 18 18" fill="none"
    xmlns="http://www.w3.org/2000/svg">
    <path id="Vector" d="M14.5451 14.1626L16.9864 16.6026C17.1002 16.7205 17.1632 16.8784 17.1618 17.0422C17.1603 17.2061 17.0946 17.3629 16.9787 17.4787C16.8629 17.5946 16.7061 17.6603 16.5422 17.6618C16.3784 17.6632 16.2205 17.6002 16.1026 17.4864L13.6614 15.0451C12.0661 16.4119 10.0034 17.1077 7.90612 16.9865C5.80887 16.8652 3.8401 15.9364 2.41291 14.3949C0.985729 12.8534 0.211076 10.819 0.251507 8.71863C0.291937 6.61827 1.14431 4.61521 2.62976 3.12976C4.11521 1.64431 6.11827 0.791937 8.21863 0.751507C10.319 0.711076 12.3534 1.48573 13.8949 2.91291C15.4364 4.3401 16.3652 6.30887 16.4865 8.40612C16.6077 10.5034 15.9119 12.5661 14.5451 14.1614V14.1626ZM8.3751 15.7501C10.1985 15.7501 11.9471 15.0258 13.2365 13.7365C14.5258 12.4471 15.2501 10.6985 15.2501 8.8751C15.2501 7.05174 14.5258 5.30305 13.2365 4.01374C11.9471 2.72443 10.1985 2.0001 8.3751 2.0001C6.55174 2.0001 4.80305 2.72443 3.51374 4.01374C2.22443 5.30305 1.5001 7.05174 1.5001 8.8751C1.5001 10.6985 2.22443 12.4471 3.51374 13.7365C4.80305 15.0258 6.55174 15.7501 8.3751 15.7501Z" fill="#A2A3A4"/>
</svg>
